{"title":"Vittorio De Sica's Il Boom (1963) - DVDRip x265 HEVC - ITA (ENG","uid":13264136,"size":873283798,"categoryP":"video","categoryS":"movies","magnet":"?xt=urn:btih:95dd89e54407d4d6a9809f48d386795635994bfc&amp;dn=Vittorio+De+Sica%27s+Il+Boom+%281963%29+-+DVDRip+x265+HEVC+-+ITA+%28ENG+&amp;tr=udp%3A%2F%2Ftracker.leechers-paradise.org%3A6969&amp;tr=udp%3A%2F%2Fzer0day.ch%3A1337&amp;tr=udp%3A%2F%2Fopen.demonii.com%3A1337&amp;tr=udp%3A%2F%2Ftracker.coppersurfer.tk%3A6969&amp;tr=udp%3A%2F%2Fexodus.desync.com%3A6969","seeders":0,"leechers":2,"uploader":"BRSHNKV","files":2,"time":1453321942,"description":"During the economic boom of Italy a man tries desperately to maintain a high standard of living for his family.\r\n\r\nTechnical:\r\n\r\nFormat : MPEG-4\r\nFormat profile : Base Media\r\nCodec ID : isom\r\nFile size : 833 MiB\r\nDuration : 1h 24mn\r\nOverall bit rate : 1 370 Kbps\r\nWriting application : Lavf55.33.100\r\n\r\nVideo\r\nID : 2\r\nFormat : HEVC\r\nFormat/Info : High Efficiency Video Coding\r\nCodec ID : hvc1\r\nCodec ID/Info : High Efficiency Video Coding\r\nDuration : 1h 24mn\r\nDuration_FirstFrame : 97ms\r\nBit rate : 1 237 Kbps\r\nWidth : 1 024 pixels\r\nHeight : 576 pixels\r\nDisplay aspect ratio : 16:9\r\nFrame rate mode : Constant\r\nFrame rate : 25.000 fps\r\nBits/(Pixel*Frame) : 0.084\r\nStream size : 752 MiB (90%)\r\n\r\nAudio\r\nID : 1\r\nFormat : AAC\r\nFormat/Info : Advanced Audio Codec\r\nFormat profile : LC\r\nCodec ID : 40\r\nDuration : 1h 24mn\r\nBit rate mode : Constant\r\nBit rate : 128 Kbps\r\nChannel(s) : 2 channels\r\nChannel positions : Front: L R\r\nSampling rate : 44.1 KHz\r\nCompression mode : Lossy\r\nStream size : 77.8 MiB (9%)","torrent":{"xt":"urn:btih:95dd89e54407d4d6a9809f48d386795635994bfc","amp;dn":"Vittorio+De+Sica%27s+Il+Boom+%281963%29+-+DVDRip+x265+HEVC+-+ITA+%28ENG+","amp;tr":["udp%3A%2F%2Ftracker.leechers-paradise.org%3A6969","udp%3A%2F%2Fzer0day.ch%3A1337","udp%3A%2F%2Fopen.demonii.com%3A1337","udp%3A%2F%2Ftracker.coppersurfer.tk%3A6969","udp%3A%2F%2Fexodus.desync.com%3A6969"],"infoHash":"95dd89e54407d4d6a9809f48d386795635994bfc","infoHashBuffer":{"type":"Buffer","data":[149,221,137,229,68,7,212,214,169,128,159,72,211,134,121,86,53,153,75,252]},"announce":[],"urlList":[]}}